<?xml version="1.0" encoding="utf-8"?>
<!-- Generator: Adobe Illustrator 25.0.0, SVG Export Plug-In . SVG Version: 6.00 Build 0)  -->
<svg version="1.1" id="Capa_1" xmlns="http://www.w3.org/2000/svg" xmlns:xlink="http://www.w3.org/1999/xlink" x="0px" y="0px"
	 viewBox="0 0 512 512" style="enable-background:new 0 0 512 512;" xml:space="preserve">
<style type="text/css">
	.st0{display:none;fill:#FFFFFF;}
</style>
<g>
	<path d="M495.26,135.55c0,17.19,0.46,34.39-0.1,51.57c-1.14,35.32-31.01,64.85-66.35,65.33c-33.67,0.45-67.35,0.46-101.01-0.01
		c-35.71-0.5-66.16-31.27-66.53-67.01c-0.35-33.31-0.31-66.64-0.01-99.95c0.32-35.51,29.76-66.05,65.33-66.84
		c34.72-0.76,69.47-0.67,104.19,0.02c30.54,0.61,58.11,24.74,63.1,54.82c1.75,10.56,1.24,21.51,1.48,32.29
		c0.22,9.92,0.05,19.85,0.05,29.77C495.35,135.55,495.3,135.55,495.26,135.55z M467.74,135.55c0-17.02,0.44-34.05-0.11-51.06
		c-0.69-21.29-17.18-38.02-38.51-38.36c-33.85-0.55-67.73-0.55-101.59,0.01c-21.66,0.36-38.61,18.35-38.74,40.07
		c-0.2,32.8-0.21,65.6,0.01,98.41c0.15,21.94,17.98,40.08,39.91,40.3c33.15,0.32,66.31,0.34,99.47-0.01
		c21.43-0.22,38.75-17.3,39.46-38.83C468.19,169.25,467.75,152.4,467.74,135.55z"/>
	<path d="M495.22,380.88c0,17.37,0.46,34.75-0.1,52.09c-1.1,34.1-30.12,63.55-64.31,64.29c-35.25,0.77-70.53,0.64-105.78-0.02
		c-30.15-0.57-58.6-26.87-62.75-56.73c-0.7-5.07-1.05-10.22-1.06-15.34c-0.1-30.3-0.07-60.61-0.04-90.91
		c0.04-40.53,30.3-70.82,70.84-70.88c30.84-0.04,61.67-0.03,92.51,0c35.96,0.03,63.84,23.22,70.16,58.52
		c0.77,4.32,0.66,8.83,0.68,13.25c0.08,15.24,0.03,30.48,0.03,45.72C495.34,380.88,495.28,380.88,495.22,380.88z M467.72,380.82
		c0.06,0,0.12,0,0.18,0c0-15.96,0-31.92-0.01-47.87c0-1.06-0.1-2.13-0.15-3.19c-1.18-21.69-18.55-38.66-40.18-38.77
		c-32.8-0.17-65.61-0.18-98.41,0c-21.89,0.12-40.12,18-40.33,39.87c-0.3,33.15-0.3,66.32,0,99.47c0.19,21.16,17.24,39.1,38.26,39.45
		c34.21,0.57,68.44,0.56,102.65,0c20.61-0.34,37.19-17.26,37.87-37.9C468.16,414.87,467.72,397.84,467.72,380.82z"/>
	<path d="M16.33,135.14c0-17.54-0.51-35.1,0.11-52.62c1.19-33.77,30.3-63.12,64.19-63.83c35.42-0.75,70.89-0.63,106.31,0.04
		c29.98,0.57,58.49,27.28,62.35,57.13c0.68,5.25,1.01,10.58,1.03,15.87c0.09,30.3,0.1,60.61,0.03,90.91
		c-0.08,33.33-21.87,60.68-54.44,68.15c-5.12,1.17-10.51,1.68-15.77,1.71c-31.37,0.15-62.73,0.12-94.1,0.06
		c-35.1-0.07-63.81-24.47-69.3-58.97c-0.66-4.17-0.57-8.48-0.59-12.73c-0.06-15.24-0.03-30.48-0.03-45.72
		C16.19,135.14,16.26,135.14,16.33,135.14z M133.39,45.84c-15.43,0-30.87,0.42-46.28-0.1c-24.77-0.83-43.99,18.12-43.62,43.09
		c0.45,31.02-0.04,62.06,0.15,93.09c0.16,26.14,17.43,43.06,43.54,43.09c30.68,0.03,61.35,0.04,92.03,0
		c26.23-0.03,43.59-17.44,43.6-43.68c0.02-30.5-0.44-61,0.14-91.49c0.47-24.57-17.67-44.92-43.83-44.08
		C163.9,46.24,148.64,45.84,133.39,45.84z"/>
	<path d="M16.15,380.74c-0.19-64.51,52.11-117.17,116.57-117.36c64.63-0.19,117.58,52.47,117.64,117
		c0.06,64.71-52.48,117.22-117.29,117.21C68.41,497.59,16.34,445.54,16.15,380.74z M43.63,380.19
		c-0.29,50.09,39.16,89.78,89.4,89.91c49.2,0.13,89.41-39.08,89.78-87.54c0.38-50.6-38.72-91.34-87.95-91.62
		C83.67,290.65,43.93,329.53,43.63,380.19z"/>
	<path class="st0" d="M404.76,154.64c0,11.85,0.31,23.71-0.08,35.55c-0.5,15.15-12.69,27.16-27.76,27.32
		c-23.32,0.24-46.65,0.23-69.98,0c-15.43-0.15-27.97-12.91-28.08-28.35c-0.15-23.08-0.14-46.15,0-69.23
		c0.09-15.28,12.02-27.94,27.25-28.19c23.82-0.4,47.65-0.39,71.47-0.01c15.01,0.24,26.61,12.01,27.09,26.99
		C405.06,130.68,404.75,142.67,404.76,154.64z"/>
	<path class="st0" d="M404.74,327.19c0,11.97,0.31,23.96-0.08,35.92c-0.48,14.52-12.14,26.43-26.64,26.66
		c-24.07,0.4-48.15,0.4-72.22,0c-14.79-0.25-26.78-12.86-26.92-27.75c-0.21-23.32-0.21-46.65,0-69.98
		c0.14-15.39,12.97-27.97,28.37-28.05c23.08-0.13,46.16-0.12,69.23,0c15.22,0.08,27.44,12.02,28.27,27.28
		c0.04,0.75,0.11,1.49,0.11,2.24c0.01,11.23,0,22.45,0,33.68C404.82,327.19,404.78,327.19,404.74,327.19z"/>
	<path class="st0" d="M169.52,91.53c10.73,0,21.47,0.28,32.18-0.06c18.4-0.59,31.16,13.73,30.83,31.01
		c-0.41,21.45-0.09,42.91-0.1,64.37c-0.01,18.46-12.23,30.71-30.68,30.73c-21.58,0.03-43.16,0.02-64.74,0
		c-18.37-0.02-30.52-11.92-30.63-30.31c-0.14-21.83,0.21-43.66-0.11-65.49c-0.26-17.57,13.26-30.9,30.69-30.32
		C147.81,91.83,158.67,91.53,169.52,91.53z"/>
	<path class="st0" d="M106.38,326.75c0.21-35.64,28.17-62.99,64.18-62.79c34.63,0.19,62.15,28.85,61.88,64.45
		c-0.26,34.1-28.55,61.68-63.16,61.59C133.93,389.91,106.18,361.99,106.38,326.75z"/>
</g>
</svg>
