<?xml version="1.0" encoding="utf-8"?>
<!-- Generator: Adobe Illustrator 25.0.0, SVG Export Plug-In . SVG Version: 6.00 Build 0)  -->
<svg version="1.1" id="Capa_1" xmlns="http://www.w3.org/2000/svg" xmlns:xlink="http://www.w3.org/1999/xlink" x="0px" y="0px"
	 viewBox="0 0 512 512" style="enable-background:new 0 0 512 512;" xml:space="preserve">
<style type="text/css">
	.st0{display:none;fill:#FFFFFF;}
</style>
<g>
	<path class="st0" d="M5.19,321.08c0-105.22,0-210.44,0-315.66c167.64,0,335.27,0,502.91,0c0,167.64,0,335.27,0,502.91
		c-167.64,0-335.27,0-502.91,0c0-60.13,0-120.25,0-180.38c3.33,3.97,7.67,4.8,12.63,4.6c6.78-0.27,13.58-0.07,20.76-0.07
		c0,6.22-0.1,11.74,0.03,17.27c0.18,7.65,5.03,13.72,12.48,15.56c2.18,0.54,4.51,0.69,6.77,0.7c13.02,0.06,26.05,0.03,38.98,0.03
		c4.64,30.73,22.44,49.27,47.45,50.12c12.39,0.42,23.6-2.79,33.35-10.41c12.72-9.94,18.84-23.37,19.64-39.46
		c58.97,0,117.55,0,176.08,0c5.66,32.48,23.6,49.98,50.93,49.88c26.64-0.1,44.58-17.95,49.98-50.12c7.54,0,15.18,0.04,22.82-0.01
		c7.22-0.04,10.01-2.87,10.02-10.1c0.01-26.63,0.01-53.26,0-79.89c-0.01-21.51-11.49-36.55-32.13-42.37
		c-1.37-0.39-3.06-1.93-3.41-3.25c-4.25-16.2-8.28-32.46-12.45-49.02c5.25-1.72,6.41-5.7,6.14-10.51c-0.1-1.79,0.02-3.59-0.04-5.39
		c-0.63-19.9-14.56-33.46-34.52-33.53c-17.32-0.05-34.63-0.01-51.95-0.01c-1.74,0-3.49,0-5.74,0c0-5.43,0.03-10.29-0.01-15.15
		c-0.1-12.11-6.33-18.24-18.52-18.24c-99,0-198.01,0-297.01,0c-12.65,0-18.9,6.25-18.9,18.93c-0.01,45.58,0,91.16,0,136.74
		c0,1.31-0.09,2.63,0.08,3.92c0.57,4.27,3.83,7.08,8.01,7.04c4.22-0.04,7.23-2.84,7.68-7.27c0.18-1.78,0.14-3.59,0.14-5.38
		c0.01-43.95,0-87.89,0.02-131.84c0-2.05,0.18-4.09,0.28-6.14c101.02,0,201.43,0,302.38,0c0,2.17,0,4.08,0,6
		c0,36.6,0,73.19,0,109.79c0,8.82-0.07,17.65,0.04,26.47c0.06,5.07,3.12,8.25,7.64,8.39c4.78,0.14,7.9-3.01,8.12-8.36
		c0.11-2.69,0.02-5.39,0.02-8.28c32.04,0,63.23-0.22,94.43,0.12c11.33,0.12,21.17,9.74,21.84,17.53c-7.66,0-15.3-0.08-22.93,0.03
		c-5.33,0.07-8.24,2.8-8.4,8.1c-0.19,6.04-0.24,12.1,0.08,18.13c0.64,12.27,9.76,21.66,22.03,22.9c3.69,0.37,7.4,0.42,11.06,0.62
		c0,11.45,0,22.49,0,33.91c-5.52,0-10.74-0.16-15.94,0.06c-3.04,0.13-4.49-0.92-5.84-3.74c-9.14-19.17-24.57-29.73-45.71-29.64
		c-20.92,0.08-36.11,10.64-45.41,29.51c-0.73,1.47-2.43,2.46-3.69,3.67c-0.5-1.54-1.41-3.07-1.42-4.62
		c-0.1-17.32-0.04-34.63-0.08-51.95c-0.01-6.67-2.78-10.22-7.83-10.25c-5.02-0.04-7.99,3.69-8,10.15
		c-0.02,16.99-0.01,33.98-0.01,50.97c0,1.76,0,3.51,0,5.47c-1.23,0.15-2,0.34-2.77,0.34c-52.28,0.02-104.56,0.05-156.84-0.11
		c-1.53,0-3.75-1.7-4.47-3.18c-9.39-19.28-24.75-30.06-46.1-30c-21.15,0.06-36.48,10.79-45.49,30c-1.3,2.77-2.84,3.39-5.55,3.37
		c-12.25-0.1-24.51-0.03-36.76-0.06c-1.41,0-2.82-0.22-4.27-0.33c0-5.83,0-11.25,0-17.05c2.7,0,4.97,0,7.24,0
		c8.17,0,16.34,0.07,24.51-0.03c6.2-0.07,9.65-3.02,9.68-7.98c0.03-4.98-3.5-8-9.55-8.14c-0.82-0.02-1.63,0-2.45,0
		c-22.38,0-44.76,0.1-67.14-0.08C12.32,316.21,8.26,317.14,5.19,321.08z M197.66,246.04c-1.63-1.54-2.95-2.71-4.2-3.96
		c-10.52-10.5-20.97-21.06-31.56-31.48c-5.18-5.1-12.52-3.77-13.7,2.79c-0.5,2.73,1.14,6.76,3.18,8.89
		c12.55,13.07,25.5,25.77,38.32,38.58c6.14,6.13,9.4,6.13,15.62-0.08c23.68-23.66,47.35-47.34,71.01-71.02
		c1.15-1.15,2.42-2.27,3.23-3.65c1.92-3.28,1.8-6.63-0.82-9.49c-2.77-3.01-6.19-3.48-9.76-1.51c-1.25,0.69-2.31,1.8-3.34,2.83
		c-14.56,14.54-29.12,29.08-43.65,43.64C213.92,229.65,205.9,237.76,197.66,246.04z M272.79,316.33c-16,0-32,0-48,0
		c-3.27,0-6.54-0.11-9.8,0.03c-5.16,0.22-8.74,3.59-8.75,8.04c-0.01,4.46,3.47,7.68,8.73,8.05c0.65,0.05,1.31,0.02,1.96,0.02
		c37.39,0,74.78,0.01,112.17-0.02c1.61,0,3.72,0.22,4.74-0.66c2.17-1.87,4.59-4.13,5.41-6.71c1.08-3.42-1.08-6.41-4.42-7.77
		c-1.89-0.77-4.12-0.95-6.19-0.95C310.02,316.3,291.4,316.33,272.79,316.33z M79.91,298.75c16.48,0,32.95,0.05,49.43-0.03
		c5.8-0.03,9.51-3.67,9.04-8.51c-0.44-4.59-4.04-7.3-9.87-7.31c-32.13-0.02-64.27-0.02-96.4,0c-6.55,0-10.16,2.83-10.2,7.89
		c-0.05,5.1,3.45,7.93,10.06,7.95C47.94,298.78,63.93,298.76,79.91,298.75z"/>
	<path d="M5.19,321.08c3.07-3.95,7.14-4.88,12.01-4.84c22.38,0.19,44.76,0.08,67.14,0.08c0.82,0,1.63-0.01,2.45,0
		c6.05,0.14,9.58,3.16,9.55,8.14c-0.03,4.96-3.48,7.91-9.68,7.98c-8.17,0.09-16.34,0.03-24.51,0.03c-2.27,0-4.53,0-7.24,0
		c0,5.81,0,11.23,0,17.05c1.45,0.12,2.86,0.33,4.27,0.33c12.25,0.03,24.51-0.04,36.76,0.06c2.71,0.02,4.25-0.6,5.55-3.37
		c9.01-19.21,24.34-29.94,45.49-30c21.35-0.06,36.71,10.72,46.1,30c0.72,1.48,2.94,3.18,4.47,3.18
		c52.28,0.16,104.56,0.13,156.84,0.11c0.77,0,1.55-0.18,2.77-0.34c0-1.96,0-3.72,0-5.47c0-16.99-0.01-33.98,0.01-50.97
		c0.01-6.46,2.98-10.18,8-10.15c5.04,0.04,7.82,3.58,7.83,10.25c0.03,17.32-0.02,34.63,0.08,51.95c0.01,1.54,0.93,3.08,1.42,4.62
		c1.25-1.21,2.96-2.2,3.69-3.67c9.31-18.88,24.49-29.43,45.41-29.51c21.14-0.09,36.58,10.47,45.71,29.64
		c1.35,2.82,2.8,3.87,5.84,3.74c5.2-0.23,10.41-0.06,15.94-0.06c0-11.42,0-22.46,0-33.91c-3.65-0.2-7.37-0.25-11.06-0.62
		c-12.27-1.24-21.39-10.63-22.03-22.9c-0.32-6.03-0.26-12.09-0.08-18.13c0.16-5.3,3.07-8.03,8.4-8.1c7.63-0.1,15.26-0.03,22.93-0.03
		c-0.66-7.79-10.51-17.41-21.84-17.53c-31.19-0.33-62.39-0.12-94.43-0.12c0,2.89,0.09,5.59-0.02,8.28c-0.22,5.34-3.34,8.5-8.12,8.36
		c-4.53-0.14-7.58-3.32-7.64-8.39c-0.11-8.82-0.04-17.64-0.04-26.47c0-36.6,0-73.19,0-109.79c0-1.91,0-3.82,0-6
		c-100.95,0-201.36,0-302.38,0c-0.1,2.04-0.28,4.09-0.28,6.14c-0.02,43.95-0.01,87.89-0.02,131.84c0,1.8,0.04,3.6-0.14,5.38
		c-0.45,4.44-3.46,7.23-7.68,7.27c-4.18,0.04-7.44-2.77-8.01-7.04c-0.17-1.29-0.08-2.61-0.08-3.92c0-45.58-0.01-91.16,0-136.74
		c0-12.68,6.25-18.93,18.9-18.93c99,0,198.01,0,297.01,0c12.19,0,18.41,6.13,18.52,18.24c0.04,4.86,0.01,9.72,0.01,15.15
		c2.25,0,4,0,5.74,0c17.32,0,34.63-0.04,51.95,0.01c19.96,0.06,33.89,13.62,34.52,33.53c0.06,1.8-0.06,3.6,0.04,5.39
		c0.28,4.8-0.89,8.79-6.14,10.51c4.17,16.56,8.19,32.82,12.45,49.02c0.35,1.32,2.04,2.87,3.41,3.25
		c20.63,5.82,32.12,20.86,32.13,42.37c0.01,26.63,0.01,53.26,0,79.89c0,7.23-2.8,10.06-10.02,10.1c-7.64,0.05-15.28,0.01-22.82,0.01
		c-5.4,32.17-23.34,50.02-49.98,50.12c-27.33,0.11-45.27-17.39-50.93-49.88c-58.54,0-117.11,0-176.08,0
		c-0.8,16.09-6.92,29.53-19.64,39.46c-9.76,7.62-20.97,10.83-33.35,10.41c-25.01-0.85-42.81-19.39-47.45-50.12
		c-12.94,0-25.96,0.03-38.98-0.03c-2.26-0.01-4.59-0.16-6.77-0.7c-7.44-1.84-12.3-7.91-12.48-15.56
		c-0.13-5.52-0.03-11.05-0.03-17.27c-7.18,0-13.98-0.2-20.76,0.07c-4.96,0.2-9.3-0.63-12.63-4.6
		C5.19,325.66,5.19,323.37,5.19,321.08z M455.42,232.43c-3.9-15.67-7.78-30.77-11.34-45.96c-0.86-3.68-2.29-4.93-6.15-4.89
		c-19.93,0.21-39.86,0.09-59.79,0.11c-1.57,0-3.14,0.18-4.85,0.28c0,17,0,33.58,0,50.46C400.62,232.43,427.67,232.43,455.42,232.43z
		 M180.94,366.45c0.08-18.92-14.73-33.82-33.67-33.87c-18.74-0.05-34.02,15.02-34.11,33.66c-0.09,18.42,15.4,34.01,33.9,34.12
		C165.6,400.46,180.86,385.19,180.94,366.45z M423.57,332.58c-18.81,0.11-33.86,15.32-33.65,34c0.22,18.69,15.67,33.98,34.13,33.77
		c18.61-0.21,33.91-15.76,33.69-34.25C457.52,347.28,442.42,332.47,423.57,332.58z M448.94,165.16c0.41-9.99-6.88-17.02-17.84-17.09
		c-17.95-0.12-35.9-0.04-53.85-0.02c-1.26,0-2.53,0.23-3.88,0.37c0,5.73,0,11.18,0,16.74C398.8,165.16,423.87,165.16,448.94,165.16z
		 M491.4,282.29c-6.27,0-11.74,0-17.16,0c-2.2,14.76,2.37,19.25,17.16,16.67c0-3.46,0-7.01,0-10.56
		C491.4,286.47,491.4,284.55,491.4,282.29z"/>
	<path d="M197.66,246.04c8.24-8.29,16.25-16.39,24.31-24.46c14.54-14.56,29.09-29.11,43.65-43.64c1.03-1.03,2.08-2.14,3.34-2.83
		c3.57-1.97,7-1.5,9.76,1.51c2.63,2.86,2.74,6.21,0.82,9.49c-0.81,1.38-2.08,2.5-3.23,3.65c-23.66,23.68-47.33,47.36-71.01,71.02
		c-6.22,6.22-9.48,6.22-15.62,0.08c-12.82-12.81-25.76-25.51-38.32-38.58c-2.04-2.12-3.67-6.16-3.18-8.89
		c1.19-6.55,8.53-7.89,13.7-2.79c10.59,10.42,21.04,20.99,31.56,31.48C194.71,243.33,196.03,244.51,197.66,246.04z"/>
	<path d="M272.79,316.33c18.61,0,37.23-0.03,55.84,0.04c2.08,0.01,4.31,0.19,6.19,0.95c3.34,1.36,5.5,4.35,4.42,7.77
		c-0.82,2.58-3.24,4.84-5.41,6.71c-1.02,0.88-3.12,0.65-4.74,0.66c-37.39,0.03-74.78,0.02-112.17,0.02c-0.65,0-1.31,0.02-1.96-0.02
		c-5.26-0.37-8.74-3.59-8.73-8.05c0.01-4.44,3.59-7.82,8.75-8.04c3.26-0.14,6.53-0.03,9.8-0.03
		C240.79,316.33,256.79,316.33,272.79,316.33z"/>
	<path d="M79.91,298.75c-15.99,0-31.97,0.03-47.96-0.01c-6.61-0.01-10.11-2.84-10.06-7.95c0.05-5.06,3.66-7.89,10.2-7.89
		c32.13-0.01,64.27-0.01,96.4,0c5.83,0,9.43,2.72,9.87,7.31c0.47,4.84-3.24,8.48-9.04,8.51C112.86,298.8,96.39,298.75,79.91,298.75z
		"/>
	<path class="st0" d="M455.42,232.43c-27.76,0-54.81,0-82.13,0c0-16.87,0-33.46,0-50.46c1.71-0.1,3.28-0.28,4.85-0.28
		c19.93-0.02,39.87,0.1,59.79-0.11c3.87-0.04,5.29,1.22,6.15,4.89C447.64,201.66,451.53,216.76,455.42,232.43z"/>
	<path class="st0" d="M180.94,366.45c-0.08,18.74-15.34,34.01-33.88,33.9c-18.5-0.11-34-15.7-33.9-34.12
		c0.09-18.64,15.37-33.71,34.11-33.66C166.21,332.63,181.02,347.53,180.94,366.45z M130.76,365.84c-0.29,8.9,7.19,16.74,16.14,16.91
		c8.75,0.17,16.25-7.01,16.63-15.91c0.38-8.9-7.08-16.71-16.12-16.89C138.67,349.78,131.05,357.05,130.76,365.84z"/>
	<path class="st0" d="M423.57,332.58c18.85-0.11,33.96,14.71,34.17,33.52c0.22,18.49-15.08,34.04-33.69,34.25
		c-18.46,0.21-33.91-15.08-34.13-33.77C389.7,347.9,404.75,332.68,423.57,332.58z M423.77,349.95c-8.77,0.02-16.25,7.38-16.42,16.17
		c-0.17,8.83,7.58,16.65,16.48,16.63c8.71-0.02,16.26-7.46,16.43-16.2C440.43,357.69,432.73,349.93,423.77,349.95z"/>
	<path class="st0" d="M448.94,165.16c-25.07,0-50.14,0-75.58,0c0-5.56,0-11,0-16.74c1.36-0.13,2.62-0.37,3.88-0.37
		c17.95-0.02,35.9-0.1,53.85,0.02C442.06,148.15,449.35,155.17,448.94,165.16z"/>
	<path class="st0" d="M491.4,282.29c0,2.26,0,4.19,0,6.11c0,3.55,0,7.1,0,10.56c-14.79,2.58-19.36-1.91-17.16-16.67
		C479.66,282.29,485.13,282.29,491.4,282.29z"/>
	<path d="M130.76,365.84c0.29-8.79,7.91-16.06,16.65-15.89c9.04,0.18,16.5,7.99,16.12,16.89c-0.38,8.9-7.88,16.08-16.63,15.91
		C137.95,382.58,130.47,374.74,130.76,365.84z"/>
	<path d="M423.77,349.95c8.96-0.02,16.66,7.74,16.49,16.6c-0.17,8.74-7.72,16.18-16.43,16.2c-8.9,0.02-16.65-7.8-16.48-16.63
		C407.52,357.34,415,349.97,423.77,349.95z"/>
</g>
</svg>
