<?xml version="1.0" encoding="utf-8"?>
<!-- Generator: Adobe Illustrator 25.0.0, SVG Export Plug-In . SVG Version: 6.00 Build 0)  -->
<svg version="1.1" id="Capa_1" xmlns="http://www.w3.org/2000/svg" xmlns:xlink="http://www.w3.org/1999/xlink" x="0px" y="0px"
	 viewBox="0 0 512 512" style="enable-background:new 0 0 512 512;" xml:space="preserve">
<style type="text/css">
	.st0{display:none;fill:#FFFFFF;}
</style>
<g>
	<path class="st0" d="M502.88,373.36c0,44.68,0,89.36,0,134.06c-166.06,0-332.12,0-498.26,0c0-166.03,0-332.07,0-498.26
		c166.03,0,332.14,0,498.26,0c0,84.75,0,169.58,0,254.41c-1.74-2.48-3.19-5.23-5.26-7.38c-27.07-28.09-54.24-56.08-81.34-84.13
		c-3.71-3.84-8.05-5.62-13.41-5.58c-15.38,0.12-30.75,0.04-46.13,0.04c-1.71,0-3.41,0-5.41,0c0-2.45,0-4.21,0-5.97
		c0-18.78,0.04-37.56-0.02-56.33c-0.03-8.1-5.04-13.76-13.03-14.93c-1.43-0.21-2.9-0.22-4.35-0.22
		c-88.37-0.01-176.74-0.01-265.12-0.01c-0.81,0-1.62-0.02-2.43,0.03c-9.11,0.56-14.98,6.55-15.07,15.68
		c-0.11,12.3-0.03,24.61-0.03,36.91c0,1.73,0,3.47,0,5.69c-3.76,0-6.96-0.12-10.15,0.02c-9.09,0.41-15.27,6.5-15.21,14.88
		c0.05,8.29,6.49,14.43,15.46,14.67c3.18,0.09,6.36,0.01,9.5,0.01c0,9.91,0,19.17,0,28.69c-2.67,0-4.93,0-7.19,0
		c-7.61,0.01-15.22-0.16-22.82,0.07c-8.75,0.26-14.97,6.02-15.35,13.75c-0.43,8.85,6,15.61,15.3,15.75
		c9.99,0.15,19.98,0.03,30.46,0.03c0,2.4,0,4.3,0,6.2c0,41.6-0.01,83.21,0.01,124.81c0,11.42,5.82,17.29,17.31,17.4
		c7.93,0.08,15.87,0.19,23.79-0.06c3.46-0.11,5.01,1.05,6.29,4.31c9.13,23.36,31.26,38.46,56.01,38.51
		c24.64,0.05,46.94-15.11,56.04-38.44c1.31-3.35,2.97-4.21,6.34-4.2c43.05,0.1,86.11,0.13,129.16-0.03c3.87-0.01,5.5,1.21,7,4.71
		c10.04,23.47,28.08,36.56,53.45,37.66c23.73,1.03,42.03-9.6,54.46-29.97c2.44-4,3.66-9.96,7.14-11.79
		c3.94-2.07,9.81-0.82,14.8-0.45C492.04,384.57,498.79,381.57,502.88,373.36z"/>
	<path d="M502.88,373.36c-4.1,8.21-10.85,11.21-19.79,10.56c-4.99-0.37-10.86-1.62-14.8,0.45c-3.48,1.83-4.7,7.79-7.14,11.79
		c-12.43,20.37-30.73,31-54.46,29.97c-25.38-1.1-43.41-14.19-53.45-37.66c-1.5-3.51-3.13-4.73-7-4.71
		c-43.05,0.16-86.11,0.14-129.16,0.03c-3.36-0.01-5.03,0.85-6.34,4.2c-9.1,23.34-31.4,38.49-56.04,38.44
		c-24.75-0.05-46.89-15.15-56.01-38.51c-1.27-3.26-2.83-4.42-6.29-4.31c-7.92,0.25-15.86,0.14-23.79,0.06
		c-11.49-0.12-17.31-5.98-17.31-17.4c-0.01-41.6-0.01-83.21-0.01-124.81c0-1.9,0-3.8,0-6.2c-10.49,0-20.48,0.12-30.46-0.03
		c-9.29-0.14-15.73-6.9-15.3-15.75c0.37-7.74,6.6-13.49,15.35-13.75c7.6-0.23,15.21-0.06,22.82-0.07c2.26,0,4.52,0,7.19,0
		c0-9.52,0-18.78,0-28.69c-3.14,0-6.32,0.07-9.5-0.01c-8.97-0.24-15.41-6.38-15.46-14.67c-0.05-8.38,6.12-14.47,15.21-14.88
		c3.19-0.14,6.39-0.02,10.15-0.02c0-2.23,0-3.96,0-5.69c0-12.3-0.08-24.61,0.03-36.91c0.08-9.13,5.95-15.12,15.07-15.68
		c0.81-0.05,1.62-0.03,2.43-0.03c88.37,0,176.74,0,265.12,0.01c1.45,0,2.92,0.01,4.35,0.22c7.99,1.17,13,6.84,13.03,14.93
		c0.06,18.78,0.02,37.56,0.02,56.33c0,1.76,0,3.52,0,5.97c1.99,0,3.7,0,5.41,0c15.38,0,30.75,0.07,46.13-0.04
		c5.36-0.04,9.7,1.74,13.41,5.58c27.1,28.05,54.27,56.04,81.34,84.13c2.07,2.15,3.52,4.91,5.26,7.38
		C502.88,300.17,502.88,336.76,502.88,373.36z M321.69,353.96c0-78.7,0-156.81,0-235.01c-80.21,0-160.25,0-240.42,0
		c0,9.54,0,18.8,0,28.41c2.17,0,3.94,0,5.7,0c25.9,0,51.8,0.02,77.7-0.01c5.22-0.01,10.05,0.98,13.54,5.2
		c3.81,4.61,4.82,9.81,2.36,15.4c-2.82,6.38-8.08,9-14.78,9.01c-26.22,0.04-52.44,0.02-78.67,0.02c-1.9,0-3.8,0-5.87,0
		c0,9.79,0,19.04,0,28.69c2.31,0,4.23,0,6.15,0c22.18,0,44.35,0.02,66.53-0.01c5.39-0.01,10.35,1.06,13.87,5.55
		c3.71,4.73,4.51,9.97,1.91,15.46c-2.88,6.08-8.05,8.59-14.56,8.6c-22.82,0.03-45.65,0.01-68.47,0.01c-1.85,0-3.71,0-5.4,0
		c0,40.07,0,79.3,0,118.56c5.07,0,9.71,0,14.28,0c6.44-27.96,29.33-47.04,57.48-48.11c12.76-0.48,24.63,3.03,35.26,10.24
		c13.58,9.21,21.91,22.06,25.62,38.02C249.78,353.96,285.33,353.96,321.69,353.96z M351.35,347.16
		c11.41-26.71,30.29-41.7,58.05-41.24c31.33,0.52,50.46,18.39,59.08,48.04c1.68,0,3.24,0,4.94,0c0-23.91,0-47.6,0-71.37
		c-40.84,0-81.36,0-122.08,0C351.35,303.91,351.35,324.88,351.35,347.16z M351.38,252.59c34.09,0,67.59,0,101.42,0
		c-0.5-0.78-0.68-1.22-0.99-1.54c-17.07-17.67-34.12-35.37-51.32-52.91c-1.26-1.28-3.67-1.98-5.56-2.01
		c-11.64-0.18-23.28-0.09-34.92-0.09c-2.84,0-5.68,0-8.63,0C351.38,215.32,351.38,233.85,351.38,252.59z M154.99,335.27
		c-17.26-0.08-30.96,13.33-31.04,30.39c-0.09,17.29,13.26,31.01,30.3,31.14c17.58,0.14,31.19-13.22,31.25-30.65
		C185.55,348.85,172.21,335.35,154.99,335.27z M378.25,365.8c-0.11,17.24,13.31,30.92,30.43,31c17.28,0.08,31.04-13.31,31.14-30.31
		c0.11-17.36-13.13-31.04-30.22-31.22C391.99,335.09,378.36,348.36,378.25,365.8z"/>
	<path class="st0" d="M321.69,353.96c-36.36,0-71.91,0-107.77,0c-3.71-15.96-12.04-28.82-25.62-38.02
		c-10.63-7.21-22.5-10.72-35.26-10.24c-28.15,1.07-51.04,20.14-57.48,48.11c-4.57,0-9.2,0-14.28,0c0-39.26,0-78.49,0-118.56
		c1.69,0,3.54,0,5.4,0c22.82,0,45.65,0.02,68.47-0.01c6.51-0.01,11.67-2.52,14.56-8.6c2.6-5.49,1.8-10.73-1.91-15.46
		c-3.52-4.49-8.48-5.55-13.87-5.55c-22.18,0.02-44.35,0.01-66.53,0.01c-1.92,0-3.84,0-6.15,0c0-9.65,0-18.9,0-28.69
		c2.07,0,3.97,0,5.87,0c26.22,0,52.44,0.02,78.67-0.02c6.7-0.01,11.96-2.63,14.78-9.01c2.47-5.58,1.46-10.79-2.36-15.4
		c-3.49-4.22-8.33-5.2-13.54-5.2c-25.9,0.03-51.8,0.01-77.7,0.01c-1.76,0-3.52,0-5.7,0c0-9.61,0-18.86,0-28.41
		c80.17,0,160.21,0,240.42,0C321.69,197.14,321.69,275.26,321.69,353.96z"/>
	<path class="st0" d="M351.35,347.16c0-22.28,0-43.25,0-64.57c40.71,0,81.23,0,122.08,0c0,23.78,0,47.47,0,71.37
		c-1.7,0-3.26,0-4.94,0c-8.62-29.65-27.75-47.52-59.08-48.04C381.64,305.46,362.76,320.45,351.35,347.16z"/>
	<path class="st0" d="M351.38,252.59c0-18.73,0-37.27,0-56.56c2.95,0,5.79,0,8.63,0c11.64,0,23.28-0.09,34.92,0.09
		c1.89,0.03,4.3,0.73,5.56,2.01c17.2,17.54,34.25,35.24,51.32,52.91c0.31,0.32,0.5,0.76,0.99,1.54
		C418.97,252.59,385.47,252.59,351.38,252.59z"/>
	<path class="st0" d="M154.99,335.27c17.22,0.08,30.56,13.58,30.51,30.88c-0.06,17.44-13.67,30.79-31.25,30.65
		c-17.05-0.14-30.39-13.85-30.3-31.14C124.03,348.6,137.73,335.19,154.99,335.27z"/>
	<path class="st0" d="M378.25,365.8c0.11-17.44,13.74-30.71,31.35-30.52c17.08,0.18,30.32,13.86,30.22,31.22
		c-0.1,17-13.87,30.39-31.14,30.31C391.56,396.73,378.13,383.04,378.25,365.8z"/>
</g>
</svg>
