<?xml version="1.0" encoding="utf-8"?>
<!-- Generator: Adobe Illustrator 25.0.0, SVG Export Plug-In . SVG Version: 6.00 Build 0)  -->
<svg version="1.1" id="Capa_1" xmlns="http://www.w3.org/2000/svg" xmlns:xlink="http://www.w3.org/1999/xlink" x="0px" y="0px"
	 viewBox="0 0 512 512" style="enable-background:new 0 0 512 512;" xml:space="preserve">
<style type="text/css">
	.st0{display:none;fill:#FFFFFF;}
</style>
<g>
	<path class="st0" d="M19.57,353.93c0-92.35,0-184.71,0-277.06c136.53,0,273.07,0,409.6,0c0,136.53,0,273.07,0,409.6
		c-136.53,0-273.07,0-409.6,0c0-41.79,0-83.57,0-125.36c2.81,2.62,5.21,6.14,8.52,7.69c9.48,4.44,19.3,8.14,29.03,12.03
		c6.34,2.54,11.23,0.95,15.42-4.46c0.62-0.81,2.46-1.47,3.36-1.15c11.74,4.14,22.01,10.57,29.97,20.3
		c8.94,10.93,19.93,19.05,33.03,24.32c1.08,0.43,2.11,0.99,3.16,1.49c-19.03,0.68-37.78,0.76-56.53,0.62
		c-4.81-0.04-7.27-3.06-7.48-8.49c-0.16-4.12,0.02-8.25-0.06-12.37c-0.09-4.38-2.4-7.12-5.84-7.11c-3.36,0.01-5.81,2.81-5.99,7.13
		c-0.14,3.45,0.07,6.92-0.06,10.38c-0.51,13.97,8.59,22.88,22.27,22.58c21.01-0.46,42.07,0.46,63.06-0.32
		c15.1-0.56,28.96,2.12,42.72,8.39c17.6,8.03,35.76,14.88,53.75,22.04c15.16,6.03,29-2.76,30.08-18.88c0.04-0.62,0.18-1.23,0.3-1.98
		c7,0.13,13.28-1.47,17.9-6.63c2.03-2.27,4.1-2.8,6.89-2.8c34.73,0.06,69.46,0.08,104.19,0.02c13.38-0.02,21.09-7.8,21.09-20.98
		c0.01-87.95,0.01-175.91-0.03-263.86c0-1.95-0.24-4.02-0.92-5.82c-4.93-12.88-10.05-25.69-15-38.57c-2.17-5.65-6.2-8.46-12.16-8.5
		c-8.78-0.06-17.56-0.06-26.35,0c-4.93,0.04-7.82,2.43-7.73,6.16c0.09,3.59,2.82,5.68,7.61,5.69c9.04,0.03,18.08,0.01,27.18,0.01
		c4.24,10.92,8.41,21.63,12.79,32.91c-2.02,0-3.33,0-4.63,0c-37.66,0-75.31-0.05-112.97,0.08c-3.52,0.01-5-0.95-5.36-4.47
		c-0.3-2.87-1.37-5.66-2.01-8.51c-1.49-6.53-2.92-13.08-4.47-20.02c2.05,0,3.49,0,4.94,0c13.17,0,26.35,0.03,39.52-0.04
		c3.73-0.02,6-2.1,6.2-5.33c0.24-3.77-1.91-5.59-5.29-6.32c-0.9-0.19-1.85-0.18-2.78-0.18c-77.18-0.01-154.35-0.01-231.53,0
		c-7.28,0-10.62,2.31-13.3,9.14c-4.9,12.47-9.8,24.94-14.55,37.46c-0.83,2.18-1.34,4.63-1.34,6.95
		c-0.09,26.61-0.06,53.22-0.05,79.84c0,5.99,2.09,9.11,6.04,9.1c3.97-0.01,5.84-2.91,5.84-9.12c0.01-23.95,0-47.9,0-71.85
		c0-1.53,0-3.06,0-4.54c41.59,0,82.5,0,123.62,0c0,1.9,0,3.49,0,5.08c0,27.14,0.04,54.29-0.04,81.43c-0.01,4.36,1.14,7.99,5.27,9.89
		c4.12,1.9,7.71,0.46,10.92-2.44c4.94-4.45,9.94-8.85,14.92-13.25c4.85-4.28,9.71-8.55,14.67-12.91
		c10.18,9.01,20.06,17.71,29.87,26.48c3.06,2.73,6.49,3.78,10.29,2.29c3.92-1.53,5.34-4.94,5.56-8.93c0.07-1.19,0.03-2.39,0.03-3.59
		c0-26.48,0-52.96,0.01-79.44c0-1.54,0.14-3.07,0.22-4.66c41.21,0,81.99,0,122.95,0c0.06,1.42,0.16,2.6,0.16,3.77
		c0.01,85.16,0.01,170.32,0,255.48c0,7.33-2.39,9.71-9.84,9.71c-31.93,0.02-63.87,0.01-95.8,0.01c-2.74,0-5.48,0-8.22,0
		c-0.11-0.4-0.22-0.8-0.34-1.21c11.32,1.38,20.14-2.25,24.47-12.83c4.43-10.85,0.23-19.55-8.6-26.39c4.9-5.09,7.47-10.74,6.71-17.55
		c-0.99-8.93-5.98-14.76-14.18-18.1c-28.14-11.45-56.26-22.92-84.39-34.39c-1.39-0.57-2.75-1.2-4.63-2.03
		c1.63-0.54,2.62-0.89,3.63-1.21c12.78-3.99,25.64-7.75,38.33-12.02c10.09-3.4,15.24-13.39,12.57-23.16
		c-2.64-9.66-12.36-15.7-22.6-13.67c-13.79,2.73-27.47,6.03-41.29,8.6c-28.69,5.32-57.43,10.4-86.18,15.34
		c-4.99,0.86-10.18,0.55-15.63,0.8c3.81-11.13,1.64-15.94-8.28-20c-8.72-3.57-17.42-7.16-26.15-10.7
		c-9.09-3.68-14.53-1.35-18.29,7.86c-9.03,22.1-18.01,44.23-27.08,66.31C27.1,336.51,23.29,345.2,19.57,353.93z"/>
	<path d="M6,351.59c4.51-10.6,9.14-21.16,13.52-31.81c11.02-26.82,21.92-53.69,32.89-80.53c4.57-11.18,11.18-14.03,22.21-9.55
		c10.6,4.3,21.18,8.65,31.76,12.99c12.04,4.93,14.68,10.78,10.05,24.29c6.62-0.3,12.92,0.08,18.98-0.97
		c34.93-6,69.82-12.18,104.67-18.63c16.78-3.11,33.39-7.12,50.14-10.44c12.44-2.47,24.24,4.87,27.45,16.6
		c3.24,11.86-3.02,24-15.27,28.13c-15.41,5.19-31.02,9.76-46.55,14.6c-1.22,0.38-2.43,0.81-4.41,1.47c2.28,1,3.93,1.78,5.62,2.47
		c34.16,13.93,68.32,27.86,102.49,41.76c9.97,4.05,16.02,11.14,17.23,21.98c0.92,8.27-2.19,15.13-8.15,21.31
		c10.72,8.32,15.83,18.88,10.45,32.06c-5.26,12.86-15.98,17.26-29.72,15.59c0.14,0.49,0.27,0.98,0.41,1.46c3.33,0,6.66,0,9.99,0
		c38.78,0,77.57,0.02,116.35-0.01c9.05-0.01,11.95-2.9,11.95-11.8c0.01-103.42,0.01-206.84,0-310.27c0-1.43-0.12-2.85-0.2-4.58
		c-49.75,0-99.27,0-149.32,0c-0.1,1.93-0.27,3.79-0.27,5.66c-0.02,32.16-0.01,64.32-0.01,96.47c0,1.45,0.04,2.91-0.04,4.36
		c-0.28,4.84-1.99,8.98-6.76,10.84c-4.62,1.81-8.79,0.53-12.5-2.78c-11.92-10.65-23.92-21.21-36.28-32.15
		c-6.02,5.3-11.93,10.48-17.81,15.68c-6.05,5.35-12.12,10.68-18.12,16.09c-3.9,3.52-8.26,5.26-13.26,2.96
		c-5.01-2.31-6.41-6.71-6.4-12.01c0.09-32.97,0.04-65.93,0.04-98.9c0-1.93,0-3.86,0-6.16c-49.94,0-99.63,0-150.13,0
		c0,1.79,0,3.65,0,5.51c0,29.09,0,58.17,0,87.26c0,7.54-2.28,11.06-7.1,11.07c-4.79,0.01-7.33-3.77-7.34-11.05
		c-0.01-32.32-0.05-64.64,0.07-96.96c0.01-2.82,0.63-5.79,1.63-8.44c5.77-15.21,11.72-30.35,17.67-45.49
		c3.25-8.28,7.31-11.09,16.15-11.09c93.73-0.02,187.45-0.01,281.18,0c1.13,0,2.28-0.01,3.37,0.22c4.1,0.88,6.71,3.1,6.42,7.68
		c-0.25,3.92-2.99,6.45-7.53,6.47c-16,0.08-32,0.04-47.99,0.04c-1.76,0-3.52,0-6,0c1.88,8.43,3.62,16.37,5.42,24.31
		c0.79,3.45,2.08,6.84,2.44,10.33c0.44,4.27,2.24,5.44,6.51,5.43c45.73-0.16,91.46-0.1,137.2-0.1c1.59,0,3.17,0,5.62,0
		c-5.33-13.7-10.38-26.71-15.54-39.97c-11.06,0-22.03,0.02-33.01-0.01c-5.81-0.02-9.13-2.55-9.24-6.91
		c-0.11-4.53,3.41-7.44,9.39-7.48c10.66-0.08,21.33-0.07,32,0c7.23,0.05,12.12,3.46,14.76,10.32c6.01,15.63,12.23,31.19,18.22,46.84
		c0.83,2.18,1.12,4.7,1.12,7.06c0.05,106.82,0.05,213.63,0.04,320.45c0,16.02-9.37,25.45-25.61,25.48
		c-42.18,0.08-84.35,0.05-126.53-0.02c-3.39-0.01-5.9,0.64-8.37,3.4c-5.62,6.26-13.24,8.21-21.74,8.05
		c-0.14,0.91-0.31,1.65-0.36,2.4c-1.31,19.57-18.13,30.25-36.53,22.92c-21.85-8.7-43.9-17.01-65.28-26.76
		c-16.71-7.62-33.54-10.87-51.88-10.2c-25.5,0.94-51.06-0.18-76.58,0.38c-16.62,0.37-27.66-10.45-27.05-27.42
		c0.15-4.2-0.1-8.41,0.07-12.6c0.21-5.25,3.2-8.65,7.28-8.66c4.18-0.01,6.99,3.32,7.09,8.63c0.1,5.01-0.12,10.02,0.08,15.03
		c0.26,6.6,3.25,10.27,9.09,10.31c22.77,0.17,45.54,0.07,68.65-0.75c-1.28-0.61-2.53-1.28-3.84-1.81
		c-15.91-6.4-29.25-16.26-40.11-29.53c-9.68-11.83-22.14-19.63-36.4-24.66c-1.1-0.39-3.32,0.41-4.08,1.39
		c-5.09,6.57-11.03,8.5-18.73,5.42c-11.82-4.72-23.75-9.21-35.26-14.61c-4.03-1.89-6.93-6.16-10.35-9.34C6,357.41,6,354.5,6,351.59z
		 M77.19,362.68c1.48,0.69,2.31,1.17,3.21,1.5c17.37,6.39,31.89,16.68,43.6,31.08c8.74,10.76,20.03,18.04,32.83,23.24
		c43.43,17.62,86.82,35.37,130.23,53.05c1.48,0.6,3.04,1.06,4.6,1.4c6.64,1.44,11.81-1.86,13.33-8.43
		c1.29-5.56-1.52-10.39-7.97-13.1c-9.35-3.94-18.77-7.71-28.17-11.54c-12.83-5.23-25.67-10.42-38.49-15.67
		c-3.59-1.47-6.42-4.07-5.15-8.09c0.74-2.35,3.14-4.77,5.41-5.86c1.59-0.76,4.36,0.34,6.38,1.16c17.34,6.96,34.61,14.1,51.94,21.08
		c10.6,4.27,21.16,8.64,31.94,12.42c5.65,1.98,11.52-1.63,13.44-7.19c1.7-4.93-0.89-10.84-6.06-13.33
		c-3.04-1.47-6.23-2.63-9.36-3.91c-24.02-9.78-48.04-19.55-72.06-29.33c-1.04-0.43-2.1-0.84-3.11-1.33c-4.27-2.08-6.03-5.7-4.6-9.39
		c1.51-3.9,5.56-5.59,10.07-3.81c10.94,4.32,21.81,8.8,32.7,13.23c22.52,9.18,45.03,18.41,67.57,27.55
		c8.47,3.43,15.95-0.24,17.09-8.21c0.79-5.5-2.33-10-8.97-12.71c-32.06-13.08-64.14-26.13-96.21-39.22c-1.93-0.79-4.49-1.3-5.5-2.8
		c-1.52-2.25-2.85-5.35-2.6-7.92c0.33-3.31,3.33-5.03,6.85-4.65c1.73,0.19,3.46,0.72,5.08,1.38c14.34,5.8,28.65,11.66,42.96,17.5
		c12.68,5.17,25.33,10.42,38.05,15.48c7.85,3.12,15.22-1.07,16.18-8.96c0.65-5.35-2.54-9.67-9.36-12.45
		c-25.8-10.53-51.62-21.02-77.42-31.54c-15.66-6.39-31.29-12.85-46.97-19.18c-3.62-1.46-6.36-3.63-6.11-7.72
		c0.24-4.04,3.03-6.21,6.9-7.04c0.78-0.17,1.52-0.54,2.29-0.78c21.83-6.78,43.69-13.49,65.49-20.37c5.51-1.74,7.89-6.33,6.4-11.28
		c-1.3-4.32-6.3-6.92-11.33-5.93c-44.87,8.83-89.7,17.9-134.65,26.33c-15.28,2.87-30.79,5.38-46.77,2.74
		C99.71,307.45,88.54,334.85,77.19,362.68z M323.48,206.97c0-33.72,0-66.39,0-99.3c-27.35,0-54.37,0-81.48,0
		c0,33.01,0,65.74,0,99.14c10.7-9.49,20.84-18.48,30.97-27.46c7.26-6.44,11.8-6.54,19.01-0.22
		C302.28,188.16,312.51,197.26,323.48,206.97z M80.66,92.58c49.78,0,98.94,0,148.06,0c3.06-13.3,6.04-26.24,9.12-39.6
		c-2.33,0-4.09,0-5.85,0c-30.99,0-61.98,0-92.97,0c-13.07,0-26.15-0.08-39.22,0.1c-1.54,0.02-3.97,1.07-4.46,2.28
		C90.31,67.55,85.62,79.86,80.66,92.58z M20.37,355.92c12.75,5.2,25.06,10.22,37.72,15.39c15.5-38,30.84-75.64,46.41-113.82
		c-12.8-5.21-25.18-10.25-37.75-15.37C51.18,280.3,35.89,317.83,20.37,355.92z M243.51,92.73c26.25,0,51.89,0,77.6,0
		c0.08-0.67,0.26-1.14,0.17-1.56c-2.67-11.94-5.29-23.9-8.21-35.78c-0.26-1.05-2.53-2.29-3.87-2.3c-18.1-0.15-36.2-0.1-54.3-0.07
		c-0.76,0-1.52,0.29-2.3,0.44C249.58,66.49,246.6,79.34,243.51,92.73z"/>
	<path class="st0" d="M78.19,363.06c9.34-22.91,18.54-45.48,27.73-68c13.16,2.17,25.93,0.1,38.52-2.26
		c37.01-6.94,73.92-14.41,110.88-21.68c4.14-0.81,8.25,1.33,9.33,4.88c1.23,4.07-0.73,7.86-5.27,9.29
		c-17.95,5.66-35.95,11.19-53.92,16.77c-0.63,0.2-1.24,0.5-1.88,0.64c-3.19,0.68-5.48,2.46-5.68,5.79c-0.2,3.37,2.05,5.16,5.03,6.36
		c12.91,5.21,25.78,10.53,38.68,15.79c21.25,8.66,42.51,17.3,63.75,25.97c5.61,2.29,8.24,5.85,7.7,10.25
		c-0.79,6.49-6.86,9.95-13.32,7.38c-10.47-4.17-20.89-8.49-31.33-12.75c-11.79-4.81-23.57-9.63-35.38-14.41
		c-1.33-0.54-2.76-0.98-4.18-1.13c-2.9-0.32-5.37,1.1-5.64,3.83c-0.21,2.12,0.88,4.66,2.14,6.52c0.83,1.23,2.94,1.65,4.53,2.3
		c26.4,10.78,52.81,21.52,79.22,32.3c5.47,2.23,8.04,5.93,7.39,10.46c-0.94,6.56-7.1,9.59-14.07,6.76
		c-18.56-7.53-37.09-15.13-55.64-22.69c-8.97-3.65-17.92-7.34-26.93-10.9c-3.71-1.46-7.05-0.07-8.29,3.14
		c-1.17,3.04,0.27,6.02,3.79,7.73c0.83,0.41,1.7,0.75,2.56,1.1c19.78,8.05,39.56,16.1,59.34,24.15c2.58,1.05,5.2,2.01,7.71,3.22
		c4.25,2.05,6.39,6.92,4.99,10.98c-1.58,4.58-6.41,7.56-11.07,5.92c-8.87-3.11-17.57-6.71-26.3-10.23
		c-14.27-5.75-28.49-11.63-42.77-17.36c-1.67-0.67-3.95-1.58-5.26-0.95c-1.87,0.9-3.84,2.88-4.46,4.82
		c-1.05,3.31,1.28,5.45,4.24,6.66c10.55,4.32,21.13,8.6,31.69,12.9c7.74,3.15,15.5,6.26,23.2,9.5c5.3,2.23,7.62,6.21,6.56,10.79
		c-1.25,5.41-5.51,8.12-10.98,6.94c-1.29-0.28-2.57-0.66-3.79-1.15c-35.75-14.56-71.47-29.17-107.23-43.68
		c-10.54-4.28-19.84-10.28-27.04-19.14c-9.64-11.86-21.6-20.33-35.9-25.59C80.1,364.03,79.41,363.64,78.19,363.06z"/>
	<path class="st0" d="M280.99,234.85c-9.04-7.99-17.46-15.49-25.94-22.92c-5.93-5.2-9.67-5.12-15.65,0.19
		c-8.34,7.4-16.69,14.79-25.5,22.61c0-27.51,0-54.46,0-81.64c22.32,0,44.57,0,67.09,0C280.99,180.18,280.99,207.08,280.99,234.85z"
		/>
	<path class="st0" d="M81.05,140.66c4.09-10.48,7.95-20.62,12.08-30.64c0.41-0.99,2.4-1.86,3.67-1.87
		c10.76-0.15,21.53-0.08,32.3-0.08c25.52,0,51.04,0,76.56,0c1.45,0,2.9,0,4.82,0c-2.53,11-4.99,21.65-7.51,32.6
		C162.51,140.66,122.03,140.66,81.05,140.66z"/>
	<path class="st0" d="M31.4,357.49c12.78-31.36,25.37-62.26,38.19-93.7c10.35,4.21,20.55,8.37,31.09,12.66
		c-12.82,31.44-25.46,62.43-38.22,93.72C52.04,365.91,41.9,361.78,31.4,357.49z"/>
	<path class="st0" d="M215.14,140.78c2.55-11.03,5-21.61,7.48-32.33c0.64-0.13,1.27-0.36,1.9-0.36c14.9-0.02,29.81-0.06,44.71,0.06
		c1.11,0.01,2.98,1.03,3.19,1.89c2.41,9.78,4.56,19.63,6.76,29.46c0.08,0.34-0.07,0.74-0.14,1.29
		C257.86,140.78,236.76,140.78,215.14,140.78z"/>
</g>
</svg>
