<?xml version="1.0" encoding="utf-8"?>
<!-- Generator: Adobe Illustrator 25.0.0, SVG Export Plug-In . SVG Version: 6.00 Build 0)  -->
<svg version="1.1" id="Capa_1" xmlns="http://www.w3.org/2000/svg" xmlns:xlink="http://www.w3.org/1999/xlink" x="0px" y="0px"
	 viewBox="0 0 512 512" style="enable-background:new 0 0 512 512;" xml:space="preserve">
<style type="text/css">
	.st0{display:none;fill:#FFFFFF;}
</style>
<path d="M204.27,498c-4.56,0-9.12,0-13.68,0c-0.73-0.28-1.44-0.69-2.21-0.82c-29.55-5.14-48.79-31.11-43.75-59.37
	c0.86-4.84,2.7-9.53,4.1-14.31c-0.21-0.09-0.49-0.3-0.77-0.3c-8.14-0.03-16.28-0.05-24.42-0.05c-13.86-0.01-18.91-4.78-18.91-17.9
	c0-111.03,0.01-222.06-0.01-333.09c0-15.39-10.19-25.12-26.22-25.15c-17.91-0.03-35.82-0.32-53.72,0.12
	C15.6,47.36,8.9,44.81,5,36.71c0-2.5,0-4.99,0-7.49c3.9-8.1,10.59-10.65,19.68-10.42c17.89,0.45,35.81,0.04,53.72,0.2
	c4.68,0.04,9.48,0.38,14.02,1.41c25.17,5.72,41.5,26.04,41.51,51.59c0.04,87.01,0.02,174.02,0.02,261.03c0,1.83,0,3.65,0,5.62
	c9.98,0,19.48,0,29.3,0c0-2.13,0-3.98,0-5.82c0-48.65-0.01-97.3,0-145.95c0-10.94,5.66-16.33,17.09-16.35c7.25-0.01,14.5,0,21.98,0
	c0-2.38,0-4.08,0-5.78c0-36.18,0-72.35,0-108.53c0-11.32,5.54-16.68,17.23-16.69c63.32-0.01,126.65-0.01,189.97,0
	c12.02,0,17.46,5.28,17.46,16.94c0.01,36.18,0,72.35,0,108.53c0,1.79,0,3.58,0,5.53c7.6,0,14.44,0,21.27,0
	c12.42,0.01,17.8,5.16,17.81,17.08c0,48.49,0,96.99,0,145.48c0,1.82,0,3.64,0,5.86c7.81,0,15.1-0.02,22.39,0
	c10.82,0.03,16.66,5.54,16.68,15.81c0.03,17.46,0.03,34.93,0,52.39c-0.02,10.54-5.81,15.98-16.97,16c-9.07,0.02-18.13,0-27.65,0
	c0.81,2.07,1.42,3.65,2.05,5.21c10.93,27.47-4.76,58.43-34.07,67.19c-3.07,0.92-6.2,1.64-9.3,2.45c-4.56,0-9.12,0-13.68,0
	c-0.73-0.28-1.44-0.69-2.2-0.82c-26.17-4.56-44.99-25.65-44.48-50.96c0.15-7.6,2.64-15.16,4.08-22.84c-38.4,0-77.62,0-117.23,0
	c0.76,1.9,1.39,3.47,2.01,5.04c10.89,27.45-4.82,58.38-34.11,67.14C210.5,496.47,207.37,497.19,204.27,498z M192.9,198.82
	c0,46.85,0,93.37,0,139.89c81.36,0,162.37,0,243.56,0c0-46.74,0-93.26,0-139.78c-22.81,0-45.33,0-68.08,0
	c0,19.82,0.02,39.3-0.01,58.77c-0.02,10.03-5.89,15.72-16.27,15.73c-24.91,0.03-49.81,0.03-74.72,0
	c-10.65-0.01-16.43-5.67-16.44-16.04c-0.02-17.78-0.01-35.55-0.01-53.33c0-1.67,0-3.35,0-5.25
	C238.06,198.82,215.66,198.82,192.9,198.82z M397.33,170.29c0-34.4,0-68.44,0-102.7c-6.69,0-13.03,0-19.36,0c-6.3,0-12.6,0-19.35,0
	c0,1.99,0,3.51,0,5.02c0,12.16,0.08,24.33-0.03,36.49c-0.08,8.56-6.14,14.54-14.97,14.59c-19.37,0.11-38.74,0.12-58.11-0.01
	c-8.56-0.06-14.67-6.05-14.76-14.3c-0.13-12.01-0.04-24.01-0.04-36.02c0-1.81,0-3.63,0-5.43c-13.35,0-26.1,0-38.83,0
	c0,34.28,0,68.21,0,102.36C287.07,170.29,342.03,170.29,397.33,170.29z M134.16,394.74c114.09,0,227.75,0,341.44,0
	c0-9.31,0-18.3,0-27.49c-113.9,0-227.56,0-341.44,0C134.16,376.48,134.16,385.46,134.16,394.74z M338.73,245.16
	c0-15.69,0-31.01,0-46.2c-16.34,0-32.33,0-48.24,0c0,15.58,0,30.79,0,46.2C306.63,245.16,322.5,245.16,338.73,245.16z M197.4,423.16
	c-13.48,0.01-24.44,10.59-24.37,23.52c0.06,12.7,10.93,23.14,24.19,23.23c13.48,0.09,24.58-10.41,24.62-23.3
	C221.88,433.71,210.88,423.14,197.4,423.16z M436.74,446.7c0.08-12.93-10.88-23.52-24.35-23.54c-13.28-0.02-24.27,10.3-24.45,22.98
	c-0.19,12.94,10.67,23.65,24.11,23.78C425.53,470.05,436.66,459.58,436.74,446.7z M300.34,67.8c0,9.44,0,18.52,0,27.49
	c9.83,0,19.31,0,28.71,0c0-9.34,0-18.31,0-27.49C319.44,67.8,310.07,67.8,300.34,67.8z"/>
<path class="st0" d="M60.81,151.16c-0.65,14.03-1.35,28.05-1.97,42.07c-0.1,2.22-0.2,4.45-0.31,6.67
	C60.95,184.08,62.81,167.14,60.81,151.16z"/>
<path class="st0" d="M28.92,318.01c-0.79-0.58-1.42-1.46-1.74-2.68c-0.16-0.61-0.3-1.23-0.43-1.85c-0.91,7.4-1.76,14.8-2.84,22.18
	c-1.72,11.82-4.84,23.38-6.22,35.29c-0.81,6.99-1.4,14.09-0.97,21.13c0.12,2.01,0.37,4.65,0.99,6.93
	c7.09-13.39,8.51-29.41,10.93-44.15c0.74-4.49,1.56-8.97,2.43-13.44c-0.02-0.14-0.05-0.28-0.06-0.43
	C30.23,333.34,29.54,325.68,28.92,318.01z"/>
<path class="st0" d="M187.39,497.18c-29.55-5.14-48.79-31.11-43.75-59.37c0.86-4.84,2.7-9.53,4.1-14.31
	c-0.21-0.09-0.49-0.3-0.77-0.3c-8.14-0.03-16.28-0.05-24.42-0.05c-13.86-0.01-18.91-4.78-18.91-17.9
	c0-111.03,0.01-222.06-0.01-333.09c0-15.39-10.19-25.12-26.22-25.15c-17.91-0.03-35.82-0.32-53.72,0.12
	C14.6,47.36,7.9,44.81,4,36.71V498h185.6C188.86,497.72,188.15,497.31,187.39,497.18z M82,275c1.35,47.14-9.84,93.22-15.23,139.81
	c1,16.31,1.32,32.59-2.95,48.52c-1.48,5.53-9.75,4.26-9.82-1.33c-0.14-11.33,0.42-22.61,1.41-33.84C54.4,434.03,53.83,439.97,54,446
	c0.19,6.45-9.81,6.42-10,0c-0.53-18.42,5.37-36.05,10.28-53.56c0.32-1.14,0.62-2.29,0.92-3.44c-0.11-2.68-0.19-5.35-0.2-8
	c-0.01-2.31,1.27-3.79,2.92-4.44c5.1-27.88,4.32-56.84,6.61-85.01c0.86-10.65,1.92-21.28,3.01-31.91c-0.13,0.53-0.26,1.07-0.38,1.6
	c-1.08,9.34-2.29,18.66-3.63,27.96C62.74,302.13,62.48,315.11,61,328c-0.33,2.87-2.56,4.44-4.84,4.71
	c-1.19,6.13-2.46,12.26-3.79,18.36c-0.62,10.3-1.12,20.6-1.37,30.92c-0.1,4.04-4.23,5.74-7.18,4.43c-1.6,5.98-3.26,11.95-5,17.9
	c-1.81,6.17-11.46,3.53-9.64-2.66c3.25-11.07,6.24-22.21,8.99-33.41c-0.25-2.05-0.44-4.1-0.59-6.16c-0.22,1.29-0.44,2.57-0.64,3.86
	c-2.43,15.41-5.14,31.71-14.63,44.56c-1.64,2.22-4.29,3.2-6.84,1.79c-12.1-6.68-9.21-28-8.04-39.14c1.37-12.95,4.3-25.52,6.49-38.32
	c2.03-11.83,2.81-23.95,4.68-35.84c2.12-13.49,4.55-26.93,6.72-40.42c0.02-0.15,0.05-0.3,0.07-0.44C23.9,216.8,24.22,175.37,26,134
	c0.2-4.56,7.09-7.31,9.32-2.52c0.13,0.29,0.25,0.59,0.38,0.88C32.39,113.3,28.56,94.32,27,75c-0.52-6.43,9.48-6.37,10,0
	c1.79,22.04,6.53,43.67,10.06,65.47c0.24-0.3,0.52-0.54,0.82-0.74C50.24,116.85,52.65,93.97,54,71c0.38-6.42,9.71-6.45,10,0
	c0.54,11.95,2.03,23.79,3.89,35.58c2.95-1.2,7.11,0.27,7.11,4.42c-0.01,11.56-0.12,23.12-0.36,34.67
	c1.96,11.65,3.69,23.49,4.52,35.33c1.64-0.12,3.26,0.58,4.16,2.48c11.45,24.17-0.26,48.63-2.6,73.36
	c-0.44,4.69-0.78,9.38-1.06,14.07C80.97,271.68,81.94,273.04,82,275z"/>
<path class="st0" d="M39.08,299.94c0.15-9.8,0.18-19.61,0.36-29.41c-0.38,2-0.77,4-1.16,6.01c-0.57,2.91-1.13,5.88-1.61,8.87
	c0.39,6.93,0.83,13.86,1.33,20.78c0.26-1.48,0.53-2.96,0.78-4.44C38.88,301.16,38.98,300.55,39.08,299.94z"/>
<path class="st0" d="M418.18,498c3.1-0.81,6.23-1.53,9.3-2.45c29.32-8.76,45-39.73,34.07-67.19c-0.62-1.57-1.23-3.14-2.05-5.21
	c9.52,0,18.59,0.01,27.65,0c11.16-0.02,16.96-5.46,16.97-16c0.03-17.46,0.03-34.93,0-52.39c-0.02-10.27-5.86-15.78-16.68-15.81
	c-7.29-0.02-14.57,0-22.39,0c0-2.22,0-4.04,0-5.86c0-48.49,0-96.99,0-145.48c0-11.91-5.39-17.07-17.81-17.08
	c-6.83,0-13.66,0-21.27,0c0-1.95,0-3.74,0-5.53c0-36.18,0-72.35,0-108.53c0-11.66-5.44-16.94-17.46-16.94
	c-63.32,0-126.65-0.01-189.97,0c-11.69,0-17.23,5.36-17.23,16.69c-0.01,36.18,0,72.35,0,108.53c0,1.7,0,3.4,0,5.78
	c-7.48,0-14.73-0.01-21.98,0c-11.43,0.02-17.09,5.42-17.09,16.35c-0.01,48.65,0,97.3,0,145.95c0,1.84,0,3.69,0,5.82
	c-9.83,0-19.32,0-29.3,0c0-1.97,0-3.8,0-5.62c0-87.01,0.03-174.02-0.02-261.03c-0.01-25.55-16.34-45.87-41.51-51.59
	c-4.54-1.03-9.33-1.37-14.02-1.41c-17.91-0.16-35.82,0.25-53.72-0.2C14.59,18.57,7.9,21.12,4,29.23C4,25.48,4,21.74,4,18
	c166.96,0,333.92,0,501,0c0,160,0,320,0,480C476.11,498,447.14,498,418.18,498z"/>
<path class="st0" d="M203.27,498c3.1-0.81,6.23-1.53,9.29-2.44c29.29-8.75,44.99-39.68,34.11-67.14c-0.62-1.57-1.25-3.14-2.01-5.04
	c39.6,0,78.83,0,117.23,0c-1.44,7.68-3.93,15.24-4.08,22.84c-0.51,25.31,18.31,46.4,44.48,50.96c0.76,0.13,1.47,0.54,2.2,0.82
	C337.42,498,270.35,498,203.27,498z"/>
<path class="st0" d="M191.9,198.82c22.76,0,45.16,0,68.02,0c0,1.9,0,3.57,0,5.25c0,17.78-0.02,35.55,0.01,53.33
	c0.01,10.37,5.79,16.03,16.44,16.04c24.91,0.03,49.81,0.03,74.72,0c10.39-0.01,16.26-5.7,16.27-15.73
	c0.03-19.48,0.01-38.95,0.01-58.77c22.75,0,45.27,0,68.08,0c0,46.52,0,93.04,0,139.78c-81.19,0-162.2,0-243.56,0
	C191.9,292.18,191.9,245.67,191.9,198.82z"/>
<path class="st0" d="M396.33,170.29c-55.3,0-110.25,0-165.46,0c0-34.15,0-68.08,0-102.36c12.73,0,25.48,0,38.83,0
	c0,1.8,0,3.62,0,5.43c0,12.01-0.09,24.01,0.04,36.02c0.09,8.26,6.2,14.25,14.76,14.3c19.37,0.13,38.74,0.12,58.11,0.01
	c8.83-0.05,14.9-6.02,14.97-14.59c0.11-12.16,0.03-24.32,0.03-36.49c0-1.52,0-3.04,0-5.02c6.75,0,13.05,0,19.35,0
	c6.34,0,12.67,0,19.36,0C396.33,101.85,396.33,135.89,396.33,170.29z"/>
<path class="st0" d="M133.16,394.74c0-9.28,0-18.26,0-27.49c113.88,0,227.54,0,341.44,0c0,9.19,0,18.18,0,27.49
	C360.91,394.74,247.25,394.74,133.16,394.74z"/>
<path class="st0" d="M337.73,245.16c-16.23,0-32.1,0-48.24,0c0-15.41,0-30.62,0-46.2c15.9,0,31.9,0,48.24,0
	C337.73,214.15,337.73,229.47,337.73,245.16z"/>
<path class="st0" d="M196.4,423.16c13.48-0.01,24.48,10.55,24.44,23.46c-0.04,12.89-11.14,23.39-24.62,23.3
	c-13.26-0.09-24.13-10.53-24.19-23.23C171.96,433.74,182.92,423.17,196.4,423.16z"/>
<path class="st0" d="M435.74,446.7c-0.08,12.88-11.21,23.35-24.7,23.22c-13.44-0.13-24.3-10.84-24.11-23.78
	c0.19-12.68,11.17-23,24.45-22.98C424.86,423.18,435.82,433.77,435.74,446.7z"/>
<path class="st0" d="M299.34,67.8c9.73,0,19.09,0,28.71,0c0,9.18,0,18.15,0,27.49c-9.4,0-18.88,0-28.71,0
	C299.34,86.33,299.34,77.24,299.34,67.8z"/>
</svg>
